<svg width="469" height="188" viewBox="0 0 469 188" fill="none" xmlns="http://www.w3.org/2000/svg">
<path d="M125.413 129.86L64.1514 129.21C63.0889 129.199 62.0745 128.765 61.3321 128.005L25.7849 91.6043C23.2962 89.0559 25.129 84.7706 28.6908 84.8099L125.888 85.8825C138.039 86.0166 147.778 95.981 147.634 108.132C147.49 120.265 137.546 129.989 125.413 129.86Z" fill="#3D3D3D"/>
<path d="M102.967 160.908L103.348 140.412C103.368 139.306 102.487 138.393 101.381 138.375L75.4115 137.949C73.6168 137.919 72.6948 140.086 73.9604 141.359L96.1313 163.655C98.6227 166.16 102.901 164.441 102.967 160.908Z" fill="#B4B4B4"/>
<path d="M83.8092 54.7798C83.9544 42.5392 94.03 32.753 106.27 32.9645L126.547 33.315C135.046 33.4618 142.705 38.4772 146.237 46.2086C152.975 60.9598 142.033 77.6968 125.817 77.4403L105.539 77.1195C93.3797 76.9271 83.6649 66.9396 83.8092 54.7798Z" fill="#3D3D3D"/>
<path d="M227.784 72.0845C225.132 72.0845 223.205 72.6529 222.005 73.7897C221.006 74.737 220.378 76.1668 220.124 78.079C220.037 78.7315 220.568 79.2842 221.226 79.2842H227.282C228.554 79.2842 229.584 80.3148 229.584 81.5861V92.9257H221.167C220.531 92.9257 220.016 93.441 220.016 94.0766V129.843C220.016 131.114 218.986 132.145 217.714 132.145H206.119C204.847 132.145 203.817 131.114 203.817 129.843V94.0766C203.817 93.441 203.302 92.9257 202.666 92.9257H199.772C198.5 92.9257 197.47 91.8951 197.47 90.6238V81.5861C197.47 80.3148 198.5 79.2842 199.772 79.2842H203.817V78.7158C203.817 72.1476 205.711 67.0952 209.501 63.5585C213.353 59.9587 218.911 58.1588 226.174 58.1588C227.1 58.1588 227.884 58.1706 228.527 58.1941C229.125 58.216 229.584 58.7139 229.584 59.3125V70.9661C229.584 71.6255 229.031 72.1501 228.373 72.1155L227.784 72.0845Z" fill="#3D3D3D"/>
<path d="M247.315 78.621C251.357 78.621 254.83 79.5368 257.735 81.3683C259.857 82.7057 261.574 84.3968 262.887 86.4414C263.224 86.9654 264.177 86.7381 264.177 86.1154V81.5861C264.177 80.3148 265.208 79.2842 266.479 79.2842H277.98C279.251 79.2842 280.282 80.3148 280.282 81.5861V129.843C280.282 131.114 279.251 132.145 277.98 132.145H266.479C265.208 132.145 264.177 131.114 264.177 129.843V122.577C262.788 125.735 260.64 128.229 257.735 130.061C254.83 131.892 251.357 132.808 247.315 132.808C242.957 132.808 239.041 131.734 235.568 129.587C232.157 127.377 229.442 124.219 227.421 120.114C225.463 116.009 224.484 111.209 224.484 105.715C224.484 100.157 225.463 95.3572 227.421 91.3152C229.442 87.2101 232.157 84.084 235.568 81.9367C239.041 79.7263 242.957 78.621 247.315 78.621ZM252.525 92.8309C249.051 92.8309 246.241 93.9677 244.094 96.2413C242.01 98.5149 240.968 101.673 240.968 105.715C240.968 109.757 242.01 112.914 244.094 115.188C246.241 117.461 249.051 118.598 252.525 118.598C255.935 118.598 258.714 117.43 260.861 115.093C263.072 112.756 264.177 109.63 264.177 105.715C264.177 101.736 263.072 98.6096 260.861 96.3361C258.714 93.9993 255.935 92.8309 252.525 92.8309Z" fill="#3D3D3D"/>
<path d="M317.771 78.621C322.128 78.621 326.012 79.7263 329.423 81.9367C332.896 84.084 335.612 87.2101 337.57 91.3152C339.591 95.3572 340.601 100.157 340.601 105.715C340.601 111.209 339.591 116.009 337.57 120.114C335.612 124.219 332.896 127.377 329.423 129.587C326.012 131.734 322.128 132.808 317.771 132.808C313.729 132.808 310.255 131.892 307.35 130.061C305.27 128.749 303.594 127.098 302.323 125.106C301.985 124.576 301.003 124.805 301.003 125.433V129.843C301.003 131.114 299.972 132.145 298.701 132.145H287.106C285.834 132.145 284.804 131.114 284.804 129.843V64.3447C284.804 63.0734 285.834 62.0428 287.106 62.0428H298.701C299.972 62.0428 301.003 63.0734 301.003 64.3447V85.9959C301.003 86.624 301.985 86.8527 302.323 86.3232C303.594 84.3315 305.27 82.6799 307.35 81.3683C310.255 79.5368 313.729 78.621 317.771 78.621ZM312.56 92.8309C309.15 92.8309 306.34 93.9993 304.129 96.3361C301.982 98.6096 300.908 101.736 300.908 105.715C300.908 109.63 301.982 112.756 304.129 115.093C306.34 117.43 309.15 118.598 312.56 118.598C316.034 118.598 318.813 117.461 320.897 115.188C323.044 112.914 324.118 109.757 324.118 105.715C324.118 101.673 323.044 98.5149 320.897 96.2413C318.813 93.9677 316.034 92.8309 312.56 92.8309Z" fill="#3D3D3D"/>
<path d="M391.907 79.2842C392.543 79.2842 393.058 79.7995 393.058 80.4351V130.994C393.058 131.63 392.543 132.145 391.907 132.145H377.915C377.279 132.145 376.764 131.63 376.764 130.994V125.06C376.764 124.45 375.864 124.22 375.522 124.725C374.096 126.834 372.237 128.581 369.943 129.966C366.975 131.798 363.501 132.713 359.523 132.713C353.46 132.713 348.628 130.692 345.028 126.651C341.492 122.609 339.723 117.051 339.723 109.978V80.4351C339.723 79.7995 340.239 79.2842 340.874 79.2842H354.677C355.313 79.2842 355.828 79.7995 355.828 80.4351V107.988C355.828 111.588 356.744 114.398 358.575 116.419C360.47 118.377 362.996 119.356 366.154 119.356C369.438 119.356 372.027 118.314 373.922 116.23C375.817 114.146 376.764 111.178 376.764 107.325V80.4351C376.764 79.7995 377.279 79.2842 377.915 79.2842H391.907Z" fill="#3D3D3D"/>
<path d="M412.639 62.0428C413.275 62.0428 413.79 62.5581 413.79 63.1938V130.994C413.79 131.63 413.275 132.145 412.639 132.145H398.742C398.106 132.145 397.591 131.63 397.591 130.994V63.1938C397.591 62.5581 398.106 62.0428 398.742 62.0428H412.639Z" fill="#3D3D3D"/>
<path d="M435.585 78.621C439.627 78.621 443.1 79.5368 446.005 81.3683C448.127 82.7057 449.844 84.3968 451.157 86.4414C451.494 86.9654 452.447 86.7381 452.447 86.1154V80.4351C452.447 79.7995 452.963 79.2842 453.598 79.2842H467.401C468.036 79.2842 468.552 79.7995 468.552 80.4351V130.994C468.552 131.63 468.036 132.145 467.401 132.145H453.598C452.963 132.145 452.447 131.63 452.447 130.994V125.314C452.447 124.691 451.494 124.464 451.157 124.988C449.844 127.032 448.127 128.723 446.005 130.061C443.1 131.892 439.627 132.808 435.585 132.808C431.227 132.808 427.311 131.734 423.838 129.587C420.428 127.377 417.712 124.219 415.691 120.114C413.733 116.009 412.754 111.209 412.754 105.715C412.754 100.157 413.733 95.3572 415.691 91.3152C417.712 87.2101 420.428 84.084 423.838 81.9367C427.311 79.7263 431.227 78.621 435.585 78.621ZM440.795 92.8309C437.322 92.8309 434.511 93.9677 432.364 96.2413C430.28 98.5149 429.238 101.673 429.238 105.715C429.238 109.757 430.28 112.914 432.364 115.188C434.511 117.461 437.322 118.598 440.795 118.598C444.205 118.598 446.984 117.43 449.132 115.093C451.342 112.756 452.447 109.63 452.447 105.715C452.447 101.736 451.342 98.6096 449.132 96.3361C446.984 93.9993 444.205 92.8309 440.795 92.8309Z" fill="#3D3D3D"/>
<path d="M415.573 161.701V141.283H419.852V148.96H419.982C420.17 148.548 420.441 148.129 420.796 147.703C421.157 147.271 421.626 146.912 422.202 146.627C422.785 146.334 423.508 146.188 424.371 146.188C425.496 146.188 426.534 146.48 427.485 147.065C428.436 147.644 429.196 148.518 429.765 149.687C430.334 150.851 430.619 152.309 430.619 154.064C430.619 155.772 430.341 157.215 429.785 158.391C429.236 159.561 428.486 160.448 427.535 161.053C426.591 161.651 425.533 161.95 424.361 161.95C423.531 161.95 422.825 161.814 422.242 161.541C421.666 161.269 421.194 160.927 420.826 160.515C420.458 160.096 420.177 159.674 419.982 159.248H419.792V161.701H415.573ZM419.761 154.044C419.761 154.955 419.889 155.749 420.143 156.427C420.398 157.105 420.766 157.633 421.248 158.012C421.73 158.384 422.316 158.57 423.005 158.57C423.702 158.57 424.291 158.381 424.773 158.002C425.255 157.617 425.62 157.085 425.868 156.407C426.122 155.722 426.25 154.935 426.25 154.044C426.25 153.16 426.126 152.383 425.878 151.711C425.63 151.04 425.265 150.515 424.783 150.136C424.301 149.757 423.709 149.568 423.005 149.568C422.309 149.568 421.72 149.751 421.238 150.116C420.762 150.482 420.398 151 420.143 151.671C419.889 152.343 419.761 153.134 419.761 154.044Z" fill="#B4B4B4"/>
<path d="M438.524 162C436.937 162 435.571 161.681 434.426 161.043C433.288 160.398 432.411 159.488 431.795 158.311C431.179 157.128 430.871 155.729 430.871 154.114C430.871 152.539 431.179 151.156 431.795 149.967C432.411 148.777 433.278 147.85 434.396 147.185C435.521 146.52 436.84 146.188 438.353 146.188C439.371 146.188 440.319 146.351 441.196 146.677C442.08 146.996 442.85 147.477 443.506 148.122C444.169 148.767 444.684 149.578 445.052 150.555C445.421 151.525 445.605 152.662 445.605 153.964V155.131H432.578V152.499H441.577C441.577 151.887 441.443 151.346 441.176 150.874C440.908 150.402 440.536 150.033 440.061 149.767C439.592 149.495 439.046 149.358 438.424 149.358C437.774 149.358 437.198 149.508 436.696 149.807C436.201 150.099 435.812 150.495 435.531 150.993C435.25 151.485 435.106 152.034 435.099 152.638V155.141C435.099 155.899 435.24 156.553 435.521 157.105C435.809 157.657 436.214 158.082 436.736 158.381C437.259 158.68 437.878 158.83 438.594 158.83C439.07 158.83 439.505 158.763 439.9 158.63C440.295 158.497 440.633 158.298 440.915 158.032C441.196 157.766 441.41 157.441 441.557 157.055L445.514 157.314C445.314 158.258 444.902 159.082 444.279 159.787C443.663 160.485 442.866 161.03 441.889 161.422C440.918 161.807 439.796 162 438.524 162Z" fill="#B4B4B4"/>
<path d="M454.623 146.387V149.578H445.333V146.387H454.623ZM447.442 142.719H451.72V156.995C451.72 157.387 451.78 157.693 451.901 157.912C452.022 158.125 452.189 158.275 452.403 158.361C452.624 158.447 452.879 158.491 453.167 158.491C453.367 158.491 453.568 158.474 453.769 158.441C453.97 158.401 454.124 158.371 454.231 158.351L454.904 161.511C454.69 161.578 454.388 161.654 454 161.741C453.612 161.834 453.14 161.89 452.584 161.91C451.553 161.95 450.649 161.814 449.872 161.502C449.102 161.189 448.503 160.704 448.074 160.046C447.646 159.388 447.435 158.557 447.442 157.553V142.719Z" fill="#B4B4B4"/>
<path d="M459.829 161.99C458.845 161.99 457.968 161.821 457.198 161.482C456.428 161.136 455.818 160.627 455.37 159.956C454.928 159.278 454.707 158.434 454.707 157.424C454.707 156.573 454.864 155.859 455.179 155.28C455.494 154.702 455.922 154.237 456.465 153.885C457.007 153.532 457.623 153.267 458.313 153.087C459.009 152.908 459.739 152.781 460.502 152.708C461.399 152.615 462.123 152.529 462.672 152.449C463.221 152.363 463.619 152.236 463.867 152.07C464.114 151.904 464.238 151.658 464.238 151.332V151.273C464.238 150.641 464.037 150.153 463.636 149.807C463.241 149.461 462.678 149.289 461.948 149.289C461.178 149.289 460.566 149.458 460.11 149.797C459.655 150.129 459.354 150.548 459.207 151.053L455.249 150.734C455.45 149.804 455.845 148.999 456.434 148.322C457.024 147.637 457.784 147.112 458.714 146.746C459.652 146.374 460.736 146.188 461.969 146.188C462.826 146.188 463.646 146.288 464.429 146.487C465.219 146.686 465.919 146.996 466.528 147.414C467.144 147.833 467.63 148.371 467.985 149.029C468.339 149.681 468.517 150.462 468.517 151.372V161.701H464.459V159.577H464.339C464.091 160.056 463.76 160.478 463.344 160.844C462.929 161.202 462.431 161.485 461.848 161.691C461.265 161.89 460.593 161.99 459.829 161.99ZM461.055 159.059C461.684 159.059 462.24 158.936 462.722 158.69C463.204 158.437 463.582 158.099 463.857 157.673C464.131 157.248 464.268 156.766 464.268 156.228V154.602C464.135 154.689 463.95 154.769 463.716 154.842C463.488 154.908 463.231 154.971 462.943 155.031C462.655 155.084 462.367 155.134 462.079 155.181C461.791 155.221 461.53 155.257 461.296 155.29C460.793 155.363 460.355 155.48 459.98 155.639C459.605 155.799 459.314 156.015 459.106 156.287C458.899 156.553 458.795 156.886 458.795 157.284C458.795 157.863 459.006 158.305 459.427 158.61C459.856 158.909 460.398 159.059 461.055 159.059Z" fill="#B4B4B4"/>
</svg>
